<?xml version="1.0" encoding="UTF-8" standalone="no"?>
<!-- Created with Inkscape (http://www.inkscape.org/) -->
<svg
   xmlns:dc="http://purl.org/dc/elements/1.1/"
   xmlns:cc="http://creativecommons.org/ns#"
   xmlns:rdf="http://www.w3.org/1999/02/22-rdf-syntax-ns#"
   xmlns:svg="http://www.w3.org/2000/svg"
   xmlns="http://www.w3.org/2000/svg"
   xmlns:xlink="http://www.w3.org/1999/xlink"
   xmlns:sodipodi="http://sodipodi.sourceforge.net/DTD/sodipodi-0.dtd"
   xmlns:inkscape="http://www.inkscape.org/namespaces/inkscape"
   width="744.09448819"
   height="1052.3622047"
   id="svg2"
   sodipodi:version="0.32"
   inkscape:version="0.46"
   sodipodi:docname="bw-banner-full.svg"
   inkscape:output_extension="org.inkscape.output.svg.inkscape"
   inkscape:export-filename="C:\Documents and Settings\tryan\Desktop\bw-banner-full.png"
   inkscape:export-xdpi="580.51001"
   inkscape:export-ydpi="580.51001">
  <defs
     id="defs4">
    <linearGradient
       inkscape:collect="always"
       id="linearGradient3397">
      <stop
         style="stop-color:#000000;stop-opacity:1;"
         offset="0"
         id="stop3399" />
      <stop
         style="stop-color:#000000;stop-opacity:0;"
         offset="1"
         id="stop3401" />
    </linearGradient>
    <linearGradient
       inkscape:collect="always"
       id="linearGradient3358">
      <stop
         style="stop-color:#800000;stop-opacity:1"
         offset="0"
         id="stop3360" />
      <stop
         style="stop-color:#000080;stop-opacity:0;"
         offset="1"
         id="stop3362" />
    </linearGradient>
    <inkscape:perspective
       sodipodi:type="inkscape:persp3d"
       inkscape:vp_x="0 : 526.18109 : 1"
       inkscape:vp_y="0 : 1000 : 0"
       inkscape:vp_z="744.09448 : 526.18109 : 1"
       inkscape:persp3d-origin="372.04724 : 350.78739 : 1"
       id="perspective10" />
    <linearGradient
       inkscape:collect="always"
       xlink:href="#linearGradient3358"
       id="linearGradient3364"
       x1="452.32999"
       y1="457.66953"
       x2="540.31268"
       y2="455.93613"
       gradientUnits="userSpaceOnUse" />
    <linearGradient
       inkscape:collect="always"
       xlink:href="#linearGradient3397"
       id="linearGradient3403"
       x1="318.80124"
       y1="465.46356"
       x2="372.98135"
       y2="465.46356"
       gradientUnits="userSpaceOnUse" />
    <inkscape:perspective
       id="perspective3982"
       inkscape:persp3d-origin="372.04724 : 350.78739 : 1"
       inkscape:vp_z="744.09448 : 526.18109 : 1"
       inkscape:vp_y="0 : 1000 : 0"
       inkscape:vp_x="0 : 526.18109 : 1"
       sodipodi:type="inkscape:persp3d" />
  </defs>
  <sodipodi:namedview
     id="base"
     pagecolor="#ffffff"
     bordercolor="#666666"
     borderopacity="1.0"
     gridtolerance="10000"
     guidetolerance="10"
     objecttolerance="10"
     inkscape:pageopacity="0.0"
     inkscape:pageshadow="2"
     inkscape:zoom="1.3652788"
     inkscape:cx="371.90512"
     inkscape:cy="960.91874"
     inkscape:document-units="px"
     inkscape:current-layer="layer1"
     showgrid="false"
     inkscape:window-width="1025"
     inkscape:window-height="669"
     inkscape:window-x="209"
     inkscape:window-y="89" />
  <metadata
     id="metadata7">
    <rdf:RDF>
      <cc:Work
         rdf:about="">
        <dc:format>image/svg+xml</dc:format>
        <dc:type
           rdf:resource="http://purl.org/dc/dcmitype/StillImage" />
      </cc:Work>
    </rdf:RDF>
  </metadata>
  <g
     inkscape:label="Layer 1"
     inkscape:groupmode="layer"
     id="layer1">
    <rect
       style="opacity:1;fill:#0000ff;fill-opacity:0;fill-rule:nonzero;stroke:#000000;stroke-width:1;stroke-linecap:butt;stroke-linejoin:round;marker:none;marker-start:none;marker-mid:none;marker-end:none;stroke-miterlimit:4;stroke-dasharray:none;stroke-dashoffset:0;stroke-opacity:1;visibility:visible;display:inline;overflow:visible;enable-background:accumulate"
       id="rect3992"
       width="74.708359"
       height="74.708359"
       x="337"
       y="54.08926"
       rx="5.6031275"
       ry="5.6031275" />
    <rect
       style="opacity:1;fill:#0000ff;fill-opacity:0;fill-rule:nonzero;stroke:#000000;stroke-width:1;stroke-linecap:butt;stroke-linejoin:round;marker:none;marker-start:none;marker-mid:none;marker-end:none;stroke-miterlimit:4;stroke-dasharray:none;stroke-dashoffset:0;stroke-opacity:1;visibility:visible;display:inline;overflow:visible;enable-background:accumulate"
       id="rect3990"
       width="74.708359"
       height="74.708359"
       x="433"
       y="54.08926"
       rx="5.6031275"
       ry="5.6031275" />
    <rect
       style="opacity:1;fill:#0000ff;fill-opacity:0;fill-rule:nonzero;stroke:#000000;stroke-width:1;stroke-linecap:butt;stroke-linejoin:round;marker:none;marker-start:none;marker-mid:none;marker-end:none;stroke-miterlimit:4;stroke-dasharray:none;stroke-dashoffset:0;stroke-opacity:1;visibility:visible;display:inline;overflow:visible;enable-background:accumulate"
       id="rect3996"
       width="74.708359"
       height="74.708359"
       x="241"
       y="54.08926"
       rx="5.6031275"
       ry="5.6031275" />
    <rect
       style="opacity:1;fill:#0000ff;fill-opacity:0;fill-rule:nonzero;stroke:#000000;stroke-width:1;stroke-linecap:butt;stroke-linejoin:round;marker:none;marker-start:none;marker-mid:none;marker-end:none;stroke-miterlimit:4;stroke-dasharray:none;stroke-dashoffset:0;stroke-opacity:1;visibility:visible;display:inline;overflow:visible;enable-background:accumulate"
       id="rect3998"
       width="74.708359"
       height="74.708359"
       x="145"
       y="54.08926"
       rx="5.6031275"
       ry="5.6031275" />
    <text
       xml:space="preserve"
       style="font-size:169.03521728999999000px;font-style:normal;font-weight:normal;line-height:125%;fill:#000000;fill-opacity:1;stroke:#ffffff;stroke-width:12;stroke-linecap:butt;stroke-linejoin:miter;stroke-miterlimit:4;stroke-dasharray:none;stroke-opacity:1;font-family:Bitstream Vera Sans"
       x="141.94724"
       y="105.81432"
       id="text4008"
       sodipodi:linespacing="125%"><tspan
         sodipodi:role="line"
         id="tspan4010"
         x="141.94724"
         y="105.81432"
         style="font-size:42.25880432000000300px;font-style:normal;font-variant:normal;font-weight:normal;font-stretch:normal;text-align:start;line-height:125%;writing-mode:lr-tb;text-anchor:start;stroke:#ffffff;stroke-width:12;stroke-linejoin:miter;stroke-miterlimit:4;stroke-dasharray:none;stroke-opacity:1;font-family:Century Gothic;-inkscape-font-specification:Century Gothic">back of the plane</tspan></text>
    <text
       xml:space="preserve"
       style="font-size:169.03521728999999000px;font-style:normal;font-weight:normal;line-height:125%;fill:#000000;fill-opacity:1;stroke:#000000;stroke-width:1;stroke-linecap:butt;stroke-linejoin:miter;stroke-miterlimit:4;stroke-dasharray:none;stroke-opacity:1;font-family:Bitstream Vera Sans"
       x="141.94724"
       y="105.81432"
       id="text4014"
       sodipodi:linespacing="125%"><tspan
         sodipodi:role="line"
         id="tspan4016"
         x="141.94724"
         y="105.81432"
         style="font-size:42.25880432000000300px;font-style:normal;font-variant:normal;font-weight:normal;font-stretch:normal;text-align:start;line-height:125%;writing-mode:lr-tb;text-anchor:start;stroke:#000000;stroke-width:1;stroke-miterlimit:4;stroke-dasharray:none;stroke-opacity:1;font-family:Century Gothic;-inkscape-font-specification:Century Gothic">back of the plane</tspan></text>
    <g
       id="g3366"
       transform="matrix(0.1509399,0,0,0.1509399,514.5008,29.252025)">
      <g
         transform="translate(54,3.03046)"
         id="g3250">
        <path
           sodipodi:type="arc"
           style="fill:#000080;fill-opacity:1;stroke:none"
           id="path3206"
           sodipodi:cx="-41.42857"
           sodipodi:cy="393.79074"
           sodipodi:rx="82.85714"
           sodipodi:ry="82.85714"
           d="M 41.42857,393.79074 A 82.85714,82.85714 0 1 1 -124.28571,393.79074 A 82.85714,82.85714 0 1 1 41.42857,393.79074 z"
           transform="matrix(0.9634689,0,0,0.9634689,278.98336,9.9232354)" />
        <path
           style="fill:#000080;fill-opacity:1;stroke:none"
           d="M 198.32951,474.03275 C 179.37553,474.03275 164.12743,489.31158 164.12743,508.26557 L 164.12743,656.47458 L 308.18794,656.47458 C 310.17736,656.47458 312.11883,656.29337 313.99584,655.92145 L 313.99584,508.26557 C 313.99584,489.31158 298.74774,474.03275 279.79376,474.03275 L 198.32951,474.03275 z"
           id="path3208" />
      </g>
      <rect
         transform="matrix(0.7598069,0.6501488,-0.6501488,0.7598069,0,0)"
         ry="34.792332"
         rx="34.792332"
         y="266.66571"
         x="442.38144"
         height="62.857124"
         width="182.85715"
         id="rect3277"
         style="fill:#000080;fill-opacity:1;stroke:none" />
    </g>
    <path
       style="opacity:1;fill:#000000;fill-opacity:1;stroke:none"
       d="M 558.73558,76.425635 C 552.08422,76.425635 546.68398,81.825885 546.68397,88.477245 C 546.68397,95.128605 552.08421,100.52413 558.73558,100.52413 C 565.38695,100.52413 570.78719,95.128615 570.78719,88.477245 C 570.78719,81.825885 565.38694,76.425635 558.73558,76.425635 z M 552.58478,101.25996 C 549.72386,101.25996 547.42452,103.56874 547.42452,106.42965 L 547.42452,110.40126 L 543.0567,106.66078 C 540.84615,104.76926 537.69004,104.85734 535.98139,106.85417 C 534.27275,108.851 534.67647,111.98136 536.88703,113.87288 L 547.42452,122.88682 L 547.42452,128.79706 L 569.1693,128.79706 C 569.46959,128.79706 569.76332,128.77301 570.04664,128.71687 L 570.04664,106.42965 C 570.04664,103.56874 567.74258,101.25996 564.88166,101.25996 L 552.58478,101.25996 z"
       id="path3376" />
    <g
       id="g3352"
       transform="matrix(0.1509399,0,0,0.1509399,514.5008,29.252025)">
      <path
         transform="matrix(0.9797841,0,0,0.9797841,516.01962,2.0051345)"
         d="M 41.42857,393.79074 A 82.85714,82.85714 0 1 1 -124.28571,393.79074 A 82.85714,82.85714 0 1 1 41.42857,393.79074 z"
         sodipodi:ry="82.85714"
         sodipodi:rx="82.85714"
         sodipodi:cy="393.79074"
         sodipodi:cx="-41.42857"
         id="path2407"
         style="fill:#d40000;fill-opacity:1;stroke:none"
         sodipodi:type="arc" />
      <path
         id="rect2409"
         d="M 434,473.97379 C 414.72505,473.97379 399.21875,489.51134 399.21875,508.78629 L 399.21875,659.50504 L 545.71875,659.50504 C 547.74186,659.50504 549.7162,659.32077 551.625,658.94254 L 551.625,508.78629 C 551.625,489.51134 536.1187,473.97379 516.84375,473.97379 L 434,473.97379 z"
         style="fill:#d40000;fill-opacity:1;stroke:none" />
      <rect
         transform="matrix(0.9767671,0.2143036,-0.2143036,0.9767671,0,0)"
         ry="34.792332"
         rx="34.792332"
         y="450.27142"
         x="441.26743"
         height="62.857128"
         width="182.85716"
         id="rect2419"
         style="fill:#d40000;fill-opacity:1;stroke:none" />
      <rect
         transform="matrix(0.9411853,0.3378908,-0.3378908,0.9411853,0,0)"
         ry="34.792332"
         rx="34.792332"
         y="292.19717"
         x="477.3544"
         height="62.857128"
         width="182.85716"
         id="rect3273"
         style="fill:#d40000;fill-opacity:1;stroke:none" />
    </g>
    <path
       style="fill:#ffffff;fill-opacity:1;stroke:#000000;stroke-width:1;stroke-linejoin:miter;stroke-miterlimit:4;stroke-dasharray:none;stroke-opacity:1"
       d="M 534.59844,54.095365 C 531.49431,54.095345 529.00469,56.584985 529.00469,59.689115 L 529.00469,69.157865 C 531.28221,70.889185 534.25274,72.347295 537.69219,73.376615 C 537.26863,76.691655 539.93586,80.351335 544.84844,82.595365 C 542.34686,80.157895 542.35234,77.471125 543.12969,74.595365 C 545.37059,74.938765 547.75142,75.126615 550.19219,75.126615 C 564.58436,75.126625 576.25469,68.714765 576.25469,60.845365 C 576.25469,58.397705 575.11984,56.108585 573.12969,54.095365 L 534.59844,54.095365 z"
       id="path3286" />
    <path
       style="opacity:1;fill:#ffffff;fill-opacity:1;stroke:#000000;stroke-opacity:1"
       d="M 586.26016,75.536465 C 579.49617,75.536465 574.01045,81.026895 574.01045,87.790895 C 574.01045,94.554895 579.49616,100.04532 586.26016,100.04532 C 593.02416,100.04532 598.51459,94.554895 598.5146,87.790895 C 598.5146,81.026895 593.02416,75.536455 586.26016,75.536465 z M 570.30299,96.540695 C 568.2851,96.579385 566.47381,97.718505 565.80781,99.573635 C 564.9198,102.04714 566.40911,104.83101 569.14735,105.81406 L 574.76043,107.82816 L 574.76043,112.05448 L 570.12374,111.03563 C 567.28198,110.41215 564.54087,111.97796 563.97766,114.54499 C 563.41445,117.11201 565.249,119.6808 568.09077,120.30429 L 574.76043,121.76652 L 574.76043,128.79937 L 596.87312,128.79937 C 597.1785,128.79937 597.4765,128.77156 597.76461,128.71447 L 597.76461,106.0499 C 597.76462,103.14054 595.42409,100.7953 592.51473,100.7953 L 583.26023,100.7953 L 572.35482,96.880305 C 571.67026,96.634545 570.97561,96.527795 570.30299,96.540695 z"
       id="path3343" />
    <path
       style="fill:#ffffff;fill-opacity:1;stroke:#000000;stroke-opacity:1"
       d="M 561.13836,108.35233 L 562.10411,114.75525 L 567.59081,114.75525 L 568.55656,108.35233 L 561.13836,108.35233 z"
       id="rect3262" />
    <path
       style="fill:#ffffff;fill-opacity:1;stroke:#000000;stroke-opacity:1"
       d="M 536.50742,101.33917 L 537.47317,107.74209 L 542.95987,107.74209 L 543.92562,101.33917 L 536.50742,101.33917 z"
       id="path3279" />
    <text
       xml:space="preserve"
       style="font-size:23.57785797px;font-style:normal;font-variant:normal;font-weight:bold;font-stretch:normal;text-align:start;line-height:125%;writing-mode:lr-tb;text-anchor:start;fill:#000000;fill-opacity:1;stroke:none;stroke-width:1px;stroke-linecap:butt;stroke-linejoin:miter;stroke-opacity:1;font-family:Berlin Sans FB Demi;-inkscape-font-specification:Berlin Sans FB Demi Bold"
       x="546.59943"
       y="72.469635"
       id="text3405"
       sodipodi:linespacing="125%"><tspan
         sodipodi:role="line"
         id="tspan3407"
         x="546.59943"
         y="72.469635">?</tspan></text>
    <rect
       style="opacity:1;fill:#0000ff;fill-opacity:0;stroke:#000000;stroke-width:1.5;stroke-linejoin:round;stroke-miterlimit:4;stroke-dasharray:none;stroke-opacity:1"
       id="rect2385"
       width="74.708359"
       height="74.708359"
       x="529"
       y="54.08926"
       rx="5.6031275"
       ry="5.6031275" />
    <flowRoot
       xml:space="preserve"
       id="flowRoot4000"
       style="fill:black;stroke:none;stroke-opacity:1;stroke-width:1px;stroke-linejoin:miter;stroke-linecap:butt;fill-opacity:1;font-family:Bitstream Vera Sans;font-style:normal;font-weight:normal;font-size:40px"><flowRegion
         id="flowRegion4002"><rect
           id="rect4004"
           width="455.70096"
           height="63.904644"
           x="157.47929"
           y="-27.930601" /></flowRegion><flowPara
         id="flowPara4006"></flowPara></flowRoot>  </g>
</svg>
