<?xml version="1.0" encoding="UTF-8" standalone="no"?>
<!-- Created with Inkscape (http://www.inkscape.org/) -->
<svg
   xmlns:dc="http://purl.org/dc/elements/1.1/"
   xmlns:cc="http://creativecommons.org/ns#"
   xmlns:rdf="http://www.w3.org/1999/02/22-rdf-syntax-ns#"
   xmlns:svg="http://www.w3.org/2000/svg"
   xmlns="http://www.w3.org/2000/svg"
   xmlns:xlink="http://www.w3.org/1999/xlink"
   xmlns:sodipodi="http://sodipodi.sourceforge.net/DTD/sodipodi-0.dtd"
   xmlns:inkscape="http://www.inkscape.org/namespaces/inkscape"
   width="744.09448819"
   height="1052.3622047"
   id="svg2"
   sodipodi:version="0.32"
   inkscape:version="0.46"
   sodipodi:docname="logo_transparent.svg"
   inkscape:output_extension="org.inkscape.output.svg.inkscape">
  <defs
     id="defs4">
    <linearGradient
       inkscape:collect="always"
       id="linearGradient3397">
      <stop
         style="stop-color:#000000;stop-opacity:1;"
         offset="0"
         id="stop3399" />
      <stop
         style="stop-color:#000000;stop-opacity:0;"
         offset="1"
         id="stop3401" />
    </linearGradient>
    <linearGradient
       inkscape:collect="always"
       id="linearGradient3358">
      <stop
         style="stop-color:#800000;stop-opacity:1"
         offset="0"
         id="stop3360" />
      <stop
         style="stop-color:#000080;stop-opacity:0;"
         offset="1"
         id="stop3362" />
    </linearGradient>
    <inkscape:perspective
       sodipodi:type="inkscape:persp3d"
       inkscape:vp_x="0 : 526.18109 : 1"
       inkscape:vp_y="0 : 1000 : 0"
       inkscape:vp_z="744.09448 : 526.18109 : 1"
       inkscape:persp3d-origin="372.04724 : 350.78739 : 1"
       id="perspective10" />
    <linearGradient
       inkscape:collect="always"
       xlink:href="#linearGradient3358"
       id="linearGradient3364"
       x1="452.32999"
       y1="457.66953"
       x2="540.31268"
       y2="455.93613"
       gradientUnits="userSpaceOnUse" />
    <linearGradient
       inkscape:collect="always"
       xlink:href="#linearGradient3397"
       id="linearGradient3403"
       x1="318.80124"
       y1="465.46356"
       x2="372.98135"
       y2="465.46356"
       gradientUnits="userSpaceOnUse" />
    <linearGradient
       inkscape:collect="always"
       xlink:href="#linearGradient3358"
       id="linearGradient2575"
       gradientUnits="userSpaceOnUse"
       x1="452.32999"
       y1="457.66953"
       x2="540.31268"
       y2="455.93613"
       gradientTransform="matrix(0.1509399,0,0,0.1509399,81.30861,559.96916)" />
    <linearGradient
       inkscape:collect="always"
       xlink:href="#linearGradient3397"
       id="linearGradient2585"
       gradientUnits="userSpaceOnUse"
       x1="318.80124"
       y1="465.46356"
       x2="372.98135"
       y2="465.46356"
       gradientTransform="matrix(0.1509399,0,0,0.1509399,81.30861,559.96916)" />
  </defs>
  <sodipodi:namedview
     id="base"
     pagecolor="#ffffff"
     bordercolor="#666666"
     borderopacity="1.0"
     gridtolerance="10000"
     guidetolerance="10"
     objecttolerance="10"
     inkscape:pageopacity="0.0"
     inkscape:pageshadow="2"
     inkscape:zoom="5.6"
     inkscape:cx="131.00066"
     inkscape:cy="432.77713"
     inkscape:document-units="px"
     inkscape:current-layer="layer1"
     showgrid="false"
     inkscape:window-width="1025"
     inkscape:window-height="669"
     inkscape:window-x="246"
     inkscape:window-y="71" />
  <metadata
     id="metadata7">
    <rdf:RDF>
      <cc:Work
         rdf:about="">
        <dc:format>image/svg+xml</dc:format>
        <dc:type
           rdf:resource="http://purl.org/dc/dcmitype/StillImage" />
      </cc:Work>
    </rdf:RDF>
  </metadata>
  <g
     inkscape:label="Layer 1"
     inkscape:groupmode="layer"
     id="layer1">
    <g
       id="g3366"
       transform="matrix(0.1509399,0,0,0.1509399,81.30861,559.96916)">
      <g
         transform="translate(54,3.03046)"
         id="g3250">
        <path
           sodipodi:type="arc"
           style="fill:#000080;fill-opacity:1;stroke:none"
           id="path3206"
           sodipodi:cx="-41.42857"
           sodipodi:cy="393.79074"
           sodipodi:rx="82.85714"
           sodipodi:ry="82.85714"
           d="M 41.42857,393.79074 A 82.85714,82.85714 0 1 1 -124.28571,393.79074 A 82.85714,82.85714 0 1 1 41.42857,393.79074 z"
           transform="matrix(0.9634689,0,0,0.9634689,278.98336,9.9232354)" />
        <path
           style="fill:#000080;fill-opacity:1;stroke:none"
           d="M 198.32951,474.03275 C 179.37553,474.03275 164.12743,489.31158 164.12743,508.26557 L 164.12743,656.47458 L 308.18794,656.47458 C 310.17736,656.47458 312.11883,656.29337 313.99584,655.92145 L 313.99584,508.26557 C 313.99584,489.31158 298.74774,474.03275 279.79376,474.03275 L 198.32951,474.03275 z"
           id="path3208" />
      </g>
      <rect
         transform="matrix(0.7598069,0.6501488,-0.6501488,0.7598069,0,0)"
         ry="34.792332"
         rx="34.792332"
         y="266.66571"
         x="442.38144"
         height="62.857124"
         width="182.85715"
         id="rect3277"
         style="fill:#000080;fill-opacity:1;stroke:none" />
    </g>
    <path
       style="opacity:0.25;fill:url(#linearGradient2585);fill-opacity:1;stroke:none"
       d="M 125.54339,607.14277 C 118.89203,607.14277 113.49179,612.54302 113.49178,619.19438 C 113.49178,625.84574 118.89202,631.24127 125.54339,631.24127 C 132.19476,631.24127 137.595,625.84575 137.595,619.19438 C 137.595,612.54302 132.19475,607.14277 125.54339,607.14277 z M 119.39259,631.9771 C 116.53167,631.9771 114.23233,634.28588 114.23233,637.14679 L 114.23233,641.1184 L 109.86451,637.37792 C 107.65396,635.4864 104.49785,635.57448 102.7892,637.57131 C 101.08056,639.56814 101.48428,642.6985 103.69484,644.59002 L 114.23233,653.60396 L 114.23233,659.5142 L 135.97711,659.5142 C 136.2774,659.5142 136.57113,659.49015 136.85445,659.43401 L 136.85445,637.14679 C 136.85445,634.28588 134.55039,631.9771 131.68947,631.9771 L 119.39259,631.9771 z"
       id="path3376" />
    <g
       id="g3352"
       transform="matrix(0.1509399,0,0,0.1509399,81.30861,559.96916)">
      <path
         transform="matrix(0.9797841,0,0,0.9797841,516.01962,2.0051345)"
         d="M 41.42857,393.79074 A 82.85714,82.85714 0 1 1 -124.28571,393.79074 A 82.85714,82.85714 0 1 1 41.42857,393.79074 z"
         sodipodi:ry="82.85714"
         sodipodi:rx="82.85714"
         sodipodi:cy="393.79074"
         sodipodi:cx="-41.42857"
         id="path2407"
         style="fill:#d40000;fill-opacity:1;stroke:none"
         sodipodi:type="arc" />
      <path
         id="rect2409"
         d="M 434,473.97379 C 414.72505,473.97379 399.21875,489.51134 399.21875,508.78629 L 399.21875,659.50504 L 545.71875,659.50504 C 547.74186,659.50504 549.7162,659.32077 551.625,658.94254 L 551.625,508.78629 C 551.625,489.51134 536.1187,473.97379 516.84375,473.97379 L 434,473.97379 z"
         style="fill:#d40000;fill-opacity:1;stroke:none" />
      <rect
         transform="matrix(0.9767671,0.2143036,-0.2143036,0.9767671,0,0)"
         ry="34.792332"
         rx="34.792332"
         y="450.27142"
         x="441.26743"
         height="62.857128"
         width="182.85716"
         id="rect2419"
         style="fill:#d40000;fill-opacity:1;stroke:none" />
      <rect
         transform="matrix(0.9411853,0.3378908,-0.3378908,0.9411853,0,0)"
         ry="34.792332"
         rx="34.792332"
         y="292.19717"
         x="477.3544"
         height="62.857128"
         width="182.85716"
         id="rect3273"
         style="fill:#d40000;fill-opacity:1;stroke:none" />
    </g>
    <path
       style="fill:#0000ff;fill-opacity:0.29803922999999999;stroke:none;stroke-width:0.15093989999999999;stroke-opacity:0.29803922999999999"
       d="M 101.40625 584.8125 C 98.302117 584.81248 95.8125 587.30212 95.8125 590.40625 L 95.8125 599.875 C 98.090016 601.60632 101.06055 603.06443 104.5 604.09375 C 104.07644 607.40879 106.74367 611.06847 111.65625 613.3125 C 109.15467 610.87503 109.16015 608.18826 109.9375 605.3125 C 112.1784 605.6559 114.55923 605.84375 117 605.84375 C 131.39217 605.84376 143.0625 599.4319 143.0625 591.5625 C 143.0625 589.11484 141.92765 586.82572 139.9375 584.8125 L 101.40625 584.8125 z "
       id="path3286" />
    <path
       style="opacity:0.5;fill:url(#linearGradient2575);fill-opacity:1;stroke:none"
       d="M 153.06797,606.2536 C 146.30398,606.2536 140.81826,611.74403 140.81826,618.50803 C 140.81826,625.27203 146.30397,630.76246 153.06797,630.76246 C 159.83197,630.76246 165.3224,625.27203 165.32241,618.50803 C 165.32241,611.74403 159.83197,606.25359 153.06797,606.2536 z M 137.1108,627.25783 C 135.09291,627.29652 133.28162,628.43564 132.61562,630.29077 C 131.72761,632.76428 133.21692,635.54815 135.95516,636.5312 L 141.56824,638.5453 L 141.56824,642.77162 L 136.93155,641.75277 C 134.08979,641.12929 131.34868,642.6951 130.78547,645.26213 C 130.22226,647.82915 132.05681,650.39794 134.89858,651.02143 L 141.56824,652.48366 L 141.56824,659.51651 L 163.68093,659.51651 C 163.98631,659.51651 164.28431,659.4887 164.57242,659.43161 L 164.57242,636.76704 C 164.57243,633.85768 162.2319,631.51244 159.32254,631.51244 L 150.06804,631.51244 L 139.16263,627.59744 C 138.47807,627.35168 137.78342,627.24493 137.1108,627.25783 z"
       id="path3343" />
    <path
       style="fill:#ffffff;fill-opacity:1;stroke:none"
       d="M 127.94617,639.06947 L 128.91192,645.47239 L 134.39862,645.47239 L 135.36437,639.06947 L 127.94617,639.06947 z"
       id="rect3262" />
    <path
       style="fill:#0000ff;fill-opacity:1;stroke:none;opacity:0.5"
       d="M 103.31523,632.05631 L 104.28098,638.45923 L 109.76768,638.45923 L 110.73343,632.05631 L 103.31523,632.05631 z"
       id="path3279" />
    <text
       xml:space="preserve"
       style="font-size:23.57785797px;font-style:normal;font-variant:normal;font-weight:bold;font-stretch:normal;text-align:start;line-height:125%;writing-mode:lr-tb;text-anchor:start;fill:#d40000;fill-opacity:1;stroke:none;stroke-width:1px;stroke-linecap:butt;stroke-linejoin:miter;stroke-opacity:1;font-family:Berlin Sans FB Demi;-inkscape-font-specification:Berlin Sans FB Demi Bold"
       x="113.40723"
       y="603.18677"
       id="text3405"
       sodipodi:linespacing="125%"><tspan
         sodipodi:role="line"
         id="tspan3407"
         x="113.40723"
         y="603.18677">?</tspan></text>
  </g>
</svg>
